<svg xmlns="http://www.w3.org/2000/svg" version="1.1" xmlns:xlink="http://www.w3.org/1999/xlink" width="512" height="512" x="0" y="0" viewBox="0 0 512 512" style="enable-background:new 0 0 512 512" xml:space="preserve" class=""><g><g fill-rule="evenodd" clip-rule="evenodd"><path fill="#fbfbfb" d="M256 32c123.712 0 224 100.288 224 224S379.712 480 256 480 32 379.712 32 256 132.288 32 256 32z" opacity="1" data-original="#fbfbfb" class=""></path><path fill="#32ab45" d="M468.168 184H43.812C73.797 95.609 157.466 32 255.99 32s182.193 63.609 212.178 152z" opacity="1" data-original="#32ab45" class=""></path><path fill="#1d1d1d" d="M468.168 328c-29.985 88.391-113.653 152-212.178 152S73.797 416.391 43.812 328z" opacity="1" data-original="#1d1d1d"></path><path fill="#e92b2b" d="M152 57.555v396.89C80.66 416.98 32 342.172 32 256c0-86.173 48.66-160.98 120-198.445z" opacity="1" data-original="#e92b2b" class=""></path></g></g></svg>