<svg xmlns="http://www.w3.org/2000/svg" version="1.1" xmlns:xlink="http://www.w3.org/1999/xlink" xmlns:svgjs="http://svgjs.com/svgjs" width="512" height="512" x="0" y="0" viewBox="0 0 512 512" style="enable-background:new 0 0 512 512" xml:space="preserve" class=""><g><path d="M0 0h512v512H0z" style="" fill="#f0f0f0" data-original="#f0f0f0"></path><path d="M0 304h208v208h96V304h208v-96H304V0h-96v208H0z" style="" fill="#d80027" data-original="#d80027" class=""></path><path d="M406.92 333.913 512 438.993v-105.08zM333.913 333.913 512 512v-50.36L384.273 333.913zM464.564 512 333.913 381.336V512z" style="" fill="#0052b4" data-original="#0052b4"></path><path d="M333.913 333.913 512 512v-50.36L384.273 333.913z" style="" fill="#f0f0f0" data-original="#f0f0f0"></path><path d="M333.913 333.913 512 512v-50.36L384.273 333.913z" style="" fill="#d80027" data-original="#d80027" class=""></path><path d="M80.302 333.913 0 414.215v-80.302zM178.084 356.559v155.438H22.658z" style="" fill="#0052b4" data-original="#0052b4"></path><path d="M127.724 333.916 0 461.641V512l178.084-178.084z" style="" fill="#d80027" data-original="#d80027" class=""></path><path d="M105.08 178.087 0 73.007v105.08zM178.087 178.087 0 0v50.36l127.727 127.727zM47.436 0l130.651 130.663V0z" style="" fill="#0052b4" data-original="#0052b4"></path><path d="M178.087 178.087 0 0v50.36l127.727 127.727z" style="" fill="#f0f0f0" data-original="#f0f0f0"></path><path d="M178.087 178.087 0 0v50.36l127.727 127.727z" style="" fill="#d80027" data-original="#d80027" class=""></path><path d="M431.698 178.087 512 97.785v80.302zM333.916 155.441V.003h155.426z" style="" fill="#0052b4" data-original="#0052b4"></path><path d="M384.276 178.084 512 50.359V0L333.916 178.084z" style="" fill="#d80027" data-original="#d80027" class=""></path></g></svg>