<svg width="70" height="48" viewBox="0 0 70 48" fill="none" xmlns="http://www.w3.org/2000/svg">
<rect width="70" height="48" rx="8" fill="#3A4762"/>
<path d="M21.6667 34.6666H48.3334V37.3333H21.6667V34.6666ZM24.3334 24H27V33.3333H24.3334V24ZM31 24H33.6667V33.3333H31V24ZM36.3334 24H39V33.3333H36.3334V24ZM43 24H45.6667V33.3333H43V24ZM21.6667 17.3333L35 10.6666L48.3334 17.3333V22.6666H21.6667V17.3333ZM35 18.6666C35.3536 18.6666 35.6928 18.5261 35.9428 18.2761C36.1929 18.0261 36.3334 17.6869 36.3334 17.3333C36.3334 16.9797 36.1929 16.6405 35.9428 16.3905C35.6928 16.1404 35.3536 16 35 16C34.6464 16 34.3073 16.1404 34.0572 16.3905C33.8072 16.6405 33.6667 16.9797 33.6667 17.3333C33.6667 17.6869 33.8072 18.0261 34.0572 18.2761C34.3073 18.5261 34.6464 18.6666 35 18.6666Z" fill="white"/>
</svg>
