<svg width="70" height="48" viewBox="0 0 70 48" fill="none" xmlns="http://www.w3.org/2000/svg">
<rect width="70" height="48" rx="8" fill="#FDFEFF"/>
<path fill-rule="evenodd" clip-rule="evenodd" d="M19.8 31.1755H16.6888C16.4759 31.1755 16.2948 31.3303 16.2616 31.5404L15.0033 39.5185C14.9783 39.676 15.1002 39.8179 15.2599 39.8179H16.7452C16.9581 39.8179 17.1392 39.6631 17.1724 39.4526L17.5118 37.3008C17.5445 37.0901 17.726 36.9356 17.9385 36.9356H18.9234C20.9729 36.9356 22.1556 35.9438 22.4647 33.9785C22.6038 33.1187 22.4705 32.4431 22.0678 31.9699C21.6257 31.4505 20.8413 31.1755 19.8 31.1755ZM20.159 34.0894C19.9889 35.2059 19.1358 35.2059 18.3111 35.2059H17.8416L18.1709 33.1208C18.1905 32.9949 18.2997 32.9021 18.4271 32.9021H18.6422C19.2041 32.9021 19.7341 32.9021 20.008 33.2223C20.1712 33.4134 20.2213 33.6972 20.159 34.0894ZM29.1002 34.0536H27.6103C27.4834 34.0536 27.3737 34.1465 27.3541 34.2726L27.2882 34.6892L27.184 34.5383C26.8615 34.0701 26.1423 33.9136 25.4244 33.9136C23.7779 33.9136 22.3718 35.1606 22.0979 36.9099C21.9556 37.7823 22.1579 38.6166 22.6529 39.1985C23.107 39.7335 23.7567 39.9564 24.5295 39.9564C25.856 39.9564 26.5918 39.1033 26.5918 39.1033L26.5253 39.5175C26.5002 39.6758 26.6221 39.8177 26.7809 39.8177H28.123C28.3365 39.8177 28.5165 39.6629 28.5501 39.4524L29.3554 34.353C29.3809 34.1962 29.2594 34.0536 29.1002 34.0536ZM27.0234 36.9534C26.8796 37.8046 26.204 38.376 25.3426 38.376C24.9099 38.376 24.564 38.2372 24.3421 37.9743C24.1219 37.7132 24.0381 37.3414 24.1082 36.9276C24.2425 36.0835 24.9295 35.4937 25.7779 35.4937C26.2009 35.4937 26.5449 35.6341 26.7714 35.8993C26.9983 36.1673 27.0885 36.5412 27.0234 36.9534ZM35.5379 34.0534H37.0352C37.2449 34.0534 37.3672 34.2886 37.2481 34.4606L32.2685 41.6484C32.1878 41.7648 32.055 41.8341 31.9131 41.8341H30.4177C30.2072 41.8341 30.0842 41.597 30.2061 41.4246L31.7567 39.236L30.1076 34.3964C30.0506 34.2282 30.1748 34.0534 30.3537 34.0534H31.8249C32.016 34.0534 32.1847 34.1789 32.2398 34.3619L33.115 37.2848L35.1801 34.2431C35.2609 34.1244 35.3952 34.0534 35.5379 34.0534Z" fill="#253B80"/>
<path fill-rule="evenodd" clip-rule="evenodd" d="M51.7709 39.5186L53.0478 31.3945C53.0673 31.2684 53.1766 31.1756 53.3035 31.1752H54.741C54.8998 31.1752 55.0216 31.3175 54.9966 31.475L53.7374 39.4527C53.7046 39.6632 53.5235 39.8179 53.3103 39.8179H52.0265C51.8677 39.8179 51.7459 39.676 51.7709 39.5186ZM41.9921 31.1756H38.8803C38.6679 31.1756 38.4869 31.3303 38.4536 31.5404L37.1953 39.5186C37.1702 39.676 37.2921 39.8179 37.4511 39.8179H39.0477C39.1961 39.8179 39.3231 39.7097 39.3462 39.5623L39.7033 37.3009C39.7361 37.0901 39.9176 36.9356 40.13 36.9356H41.1145C43.1644 36.9356 44.3469 35.9438 44.6562 33.9785C44.7957 33.1188 44.6616 32.4432 44.2591 31.9699C43.8172 31.4505 43.0334 31.1756 41.9921 31.1756ZM42.3511 34.0895C42.1814 35.2059 41.3284 35.2059 40.5031 35.2059H40.034L40.3639 33.1209C40.3835 32.995 40.4917 32.9021 40.6195 32.9021H40.8347C41.3961 32.9021 41.9267 32.9021 42.2004 33.2223C42.3637 33.4135 42.4134 33.6973 42.3511 34.0895ZM51.2915 34.0537H49.8027C49.6747 34.0537 49.5661 34.1465 49.5469 34.2727L49.481 34.6893L49.3764 34.5383C49.0538 34.0701 48.3351 33.9137 47.6172 33.9137C45.9707 33.9137 44.565 35.1607 44.2911 36.9099C44.1492 37.7823 44.3507 38.6167 44.8456 39.1986C45.3006 39.7335 45.9494 39.9565 46.7223 39.9565C48.0488 39.9565 48.7844 39.1034 48.7844 39.1034L48.7181 39.5175C48.693 39.6758 48.8149 39.8177 48.9747 39.8177H50.3162C50.5286 39.8177 50.7096 39.663 50.7429 39.4525L51.5486 34.3531C51.5732 34.1962 51.4513 34.0537 51.2915 34.0537ZM49.2149 36.9535C49.072 37.8047 48.3955 38.376 47.5338 38.376C47.1021 38.376 46.7555 38.2373 46.5334 37.9743C46.3132 37.7133 46.2305 37.3415 46.2997 36.9276C46.4347 36.0836 47.1208 35.4937 47.9692 35.4937C48.3924 35.4937 48.7362 35.6341 48.9629 35.8994C49.1907 36.1674 49.2808 36.5413 49.2149 36.9535Z" fill="#179BD7"/>
<path d="M31.314 28.3215L31.6966 25.892L30.8446 25.8722H26.7761L29.6035 7.94454C29.6121 7.89041 29.6408 7.83995 29.6824 7.80411C29.7241 7.76828 29.7776 7.74854 29.8332 7.74854H36.6932C38.9707 7.74854 40.5423 8.22245 41.3629 9.15784C41.7475 9.59667 41.9926 10.0552 42.1111 10.5598C42.2353 11.0894 42.2376 11.722 42.1162 12.4936L42.1073 12.5499V13.0443L42.4922 13.2622C42.8162 13.4341 43.0734 13.6308 43.2709 13.8561C43.6002 14.2312 43.813 14.7081 43.9029 15.2734C43.9957 15.8548 43.965 16.5467 43.813 17.33C43.6374 18.231 43.3536 19.0158 42.9705 19.6579C42.6178 20.2496 42.1688 20.7402 41.6357 21.1206C41.1267 21.4819 40.5218 21.7562 39.838 21.9318C39.1753 22.1042 38.4199 22.1913 37.5913 22.1913H37.0574C36.6757 22.1913 36.3048 22.3288 36.0138 22.5753C35.722 22.8269 35.5288 23.1705 35.4696 23.5465L35.4294 23.7652L34.7536 28.0472L34.7229 28.2044C34.7149 28.2543 34.701 28.2791 34.6806 28.296C34.6622 28.3111 34.6359 28.3215 34.6102 28.3215H31.314Z" fill="#253B80"/>
<path d="M42.8564 12.6072C42.836 12.7381 42.8126 12.8719 42.7863 13.0094C41.8814 17.6542 38.7865 19.2588 34.8334 19.2588H32.8208C32.3374 19.2588 31.93 19.6099 31.8547 20.0867L30.8241 26.6222L30.5323 28.4746C30.4833 28.7876 30.7248 29.07 31.0406 29.07H34.6105C35.0332 29.07 35.3922 28.7628 35.4587 28.346L35.4938 28.1645L36.166 23.8992L36.2092 23.6653C36.2749 23.247 36.6347 22.9398 37.0574 22.9398H37.5913C41.0498 22.9398 43.7574 21.5356 44.5488 17.4721C44.8793 15.7747 44.7082 14.3573 43.8334 13.3605C43.5688 13.0599 43.2404 12.8105 42.8564 12.6072Z" fill="#179BD7"/>
<path d="M41.9096 12.2301C41.7715 12.1899 41.6288 12.1533 41.4825 12.1204C41.3355 12.0882 41.1848 12.0597 41.0298 12.0348C40.4871 11.9471 39.8926 11.9054 39.2555 11.9054H33.8787C33.7463 11.9054 33.6206 11.9354 33.5079 11.9895C33.2599 12.1087 33.0757 12.3435 33.0311 12.6309L31.8871 19.8757L31.8542 20.087C31.9296 19.6102 32.337 19.2591 32.8204 19.2591H34.833C38.7861 19.2591 41.8812 17.6538 42.7859 13.0097C42.8128 12.8722 42.8355 12.7384 42.856 12.6075C42.6271 12.4861 42.3791 12.3822 42.1122 12.2937C42.0465 12.2718 41.9785 12.2506 41.9096 12.2301Z" fill="#222D65"/>
<path d="M33.0311 12.6307C33.0758 12.3433 33.2602 12.1085 33.508 11.99C33.6215 11.9359 33.7465 11.9059 33.8787 11.9059H39.2558C39.8928 11.9059 40.4874 11.9476 41.0299 12.0354C41.185 12.0602 41.3358 12.0887 41.4827 12.1209C41.629 12.1538 41.7716 12.1904 41.9099 12.2306C41.9785 12.2511 42.0465 12.2723 42.1131 12.2935C42.38 12.382 42.628 12.4866 42.8568 12.6073C43.1261 10.8908 42.8547 9.72209 41.9267 8.66381C40.9036 7.49878 39.0568 7 36.6939 7H29.8337C29.3509 7 28.9393 7.35103 28.8646 7.82861L26.0073 25.9406C25.9509 26.2989 26.2273 26.6223 26.5886 26.6223H30.824L31.8873 19.8755L33.0311 12.6307Z" fill="#253B80"/>
</svg>
