<svg viewBox="0 0 464 463" fill="none" xmlns="http://www.w3.org/2000/svg">
    <path d="M88.2445 271.874L54.3573 175.522C54.3573 175.522 48.5029 169.914 50.1281 167.517C51.7533 165.125 53.2386 165.446 51.946 162.763C50.6572 160.079 47.2216 156.269 50.661 153.968C54.0928 151.666 54.0625 150.234 52.2446 147.626C50.4229 145.018 52.4789 143.102 55.2191 143.419C57.9592 143.737 56.7725 139.904 59.5466 137.395C61.2625 135.837 101.257 94.4214 101.257 94.4214C101.257 94.4214 109.742 91.0199 112.354 103.931C114.966 116.842 108.582 117.42 95.2026 129.083C81.8231 140.743 76.2597 143.567 76.2597 143.567C76.2597 143.567 82.7793 148.049 75.4319 151.666C68.0883 155.283 77.076 154.221 73.1831 158.855C69.2902 163.492 78.55 167.721 73.5157 171.509C68.4814 175.296 71.0817 177.457 73.6291 184.45C76.1841 191.442 113.628 271.825 113.628 271.825L88.2445 271.874Z" fill="#7738C7"/>
    <path d="M148.361 116.815C148.361 116.815 128.103 225.306 121.493 287.865C114.89 350.423 113.616 375.629 113.616 375.629C113.616 375.629 123.28 403.945 189.282 428.402C255.276 452.856 300.332 448.967 313.727 447.72C327.121 446.472 333.785 434.23 333.785 434.23C333.785 434.23 374.021 359.887 402.557 280.472C431.092 201.057 434.652 191.37 434.652 191.37C434.652 191.37 244.149 193.978 148.361 116.815Z" fill="#FFC517"/>
    <path d="M187.113 141.624C173.733 183.15 160.384 236.074 153.286 296.686C147.949 342.275 144.54 377.806 142.39 405.253C150.761 410.884 161.518 416.864 175.215 422.764C177.18 394.334 180.748 354.713 187.082 300.647C193.716 243.966 205.954 194.571 218.32 155.521C207.678 151.447 197.261 146.808 187.113 141.624ZM277.946 173.591C268.357 204.477 258.727 235.349 249.055 266.208C232.924 317.64 216.476 369.567 203.474 409.554C200.942 417.321 198.674 424.188 196.441 430.961C207.16 434.706 218.055 437.925 229.088 440.607C231.254 434.057 233.416 427.514 235.834 420.084C248.912 379.874 265.375 327.886 281.521 276.394C292.678 240.829 302.573 209.032 311.455 180.421C300.223 178.46 289.049 176.182 277.946 173.591ZM365.102 187.704C354.738 218.205 342.145 253.282 327.628 290C307.097 341.92 282.436 396.942 255.666 445.811C270.935 448.09 283.649 448.725 293.555 448.702C318.232 401.636 340.202 350.737 359.274 302.511C375.359 261.828 389.132 223.133 400.126 190.391C388.433 189.757 376.755 188.861 365.102 187.704Z" fill="#7738C7"/>
    <path d="M148.361 116.815L145.969 129.941C149.347 134.152 152.877 138.237 156.551 142.191C193.704 182.205 371.614 219.357 387.333 279.372C389.872 289.059 390.821 299.959 390.848 311.275C394.93 301.075 398.833 290.805 402.556 280.468C431.092 201.053 434.652 191.366 434.652 191.366C434.652 191.366 244.149 193.978 148.361 116.815Z" fill="#FFAC17"/>
    <path d="M187.113 141.624C185.223 147.494 183.333 153.613 181.462 159.924C190.495 164.887 201.037 169.865 212.466 174.91C214.401 168.205 216.359 161.72 218.324 155.521L218.218 155.48C214.461 154.028 210.729 152.513 207.023 150.937L206.169 150.578C205.093 150.115 204.02 149.646 202.949 149.172C202.507 148.979 202.068 148.779 201.63 148.582C199.432 147.6 197.246 146.592 195.072 145.559L194.664 145.37C192.152 144.168 189.658 142.93 187.181 141.658L187.113 141.624ZM277.946 173.591C275.391 181.815 272.674 190.542 270.017 199.073C280.549 203.461 291.015 208.008 301.409 212.713C304.837 201.699 308.292 190.603 311.455 180.421H311.429C308.757 179.948 306.069 179.461 303.367 178.947L302.861 178.852C300.215 178.353 297.554 177.832 294.886 177.291L294.81 177.272C289.194 176.133 283.594 174.911 278.014 173.606L277.946 173.591ZM365.102 187.704C359.506 204.173 353.73 220.579 347.773 236.921C359.111 244.049 368.738 251.51 375.775 259.379C384.246 236.508 392.364 213.508 400.126 190.387C397.576 190.249 395.026 190.098 392.477 189.934L391.993 189.904C389.385 189.734 386.698 189.548 383.909 189.337L383.576 189.31C380.719 189.095 377.782 188.857 374.755 188.596L374.615 188.581C371.542 188.314 368.47 188.029 365.4 187.727L365.102 187.704Z" fill="#171D8F"/>
    <path d="M160.936 95.0075C158.255 94.3077 155.438 94.3282 152.768 95.0668C150.098 95.8055 147.67 97.2361 145.731 99.2141C144.285 100.69 143.144 102.436 142.373 104.352C141.601 106.269 141.215 108.318 141.236 110.384C141.257 112.45 141.685 114.491 142.495 116.392C143.305 118.292 144.482 120.015 145.958 121.46C145.958 121.46 249.63 221.693 431.432 198.857C433.483 198.601 435.463 197.943 437.259 196.921C439.055 195.899 440.632 194.533 441.901 192.901C443.169 191.269 444.103 189.404 444.65 187.411C445.197 185.418 445.345 183.337 445.088 181.286C444.83 179.236 444.171 177.257 443.148 175.462C442.125 173.667 440.759 172.091 439.127 170.824C437.494 169.557 435.629 168.624 433.636 168.078C431.643 167.532 429.563 167.384 427.513 167.642C258.228 188.902 167.977 98.9986 167.977 98.9986C166.018 97.0769 163.591 95.7009 160.936 95.0075ZM113.612 375.629C111.444 375.063 109.164 375.08 107.004 375.677C104.844 376.274 102.88 377.431 101.31 379.031C100.139 380.225 99.2151 381.638 98.5906 383.19C97.966 384.741 97.6532 386.401 97.6701 388.073C97.6869 389.745 98.0331 391.398 98.6888 392.937C99.3445 394.475 100.297 395.87 101.491 397.04C101.491 397.04 185.397 478.156 332.53 459.674C335.88 459.254 338.926 457.519 340.998 454.853C343.07 452.186 343.997 448.806 343.577 445.456C343.156 442.106 341.421 439.061 338.755 436.99C336.088 434.919 332.709 433.992 329.359 434.412C192.351 451.62 119.312 378.857 119.312 378.857C117.727 377.303 115.76 376.19 113.612 375.629Z" fill="#7738C7"/>
    <path d="M165.403 90.9481C165.403 90.9481 152.265 103.832 163.381 116.966C174.493 130.104 169.92 141.526 187.113 141.624C204.302 141.722 209.102 141.473 215.164 151.322C221.23 161.175 249.932 160.367 258.19 153.446C266.445 146.522 269.729 144.504 272.258 151.829C274.782 159.153 277.814 168.753 288.423 173.047C299.032 177.34 302.15 170.617 311.455 180.421C320.756 190.225 344.503 209.425 366.734 172.291C388.962 135.157 361.681 167.491 377.597 180.372C393.508 193.26 390.984 178.606 406.899 181.384C422.811 184.162 427.611 180.372 420.286 165.473C412.962 150.574 165.403 90.9481 165.403 90.9481Z" fill="#171D8F"/>
    <path d="M160.936 95.0074C160.936 95.0074 154.412 75.5428 165.025 66.1923C175.634 56.8456 186.75 63.1611 186.75 63.1611C186.75 63.1611 184.981 50.7832 191.55 47.2493C198.115 43.7117 202.915 44.9741 202.915 44.9741C202.915 44.9741 203.421 29.0623 221.862 22.743C240.306 16.4312 248.893 27.7962 248.893 27.7962C248.893 27.7962 248.133 22.743 253.186 22.2403C258.236 21.7338 262.027 26.5338 262.027 26.5338C262.027 26.5338 263.036 0.00537109 289.058 0.00537109C315.076 0.00537109 329.979 17.4403 329.979 17.4403C329.979 17.4403 341.601 12.6403 345.894 14.1521C350.188 15.6715 353.979 23.5026 353.979 23.5026C353.979 23.5026 367.112 5.05859 401.721 12.1338C436.33 19.2053 430.015 45.2273 430.015 45.2273C430.015 45.2273 439.615 39.165 450.98 56.8455C462.349 74.5299 450.98 88.6766 450.98 88.6766C450.98 88.6766 461.842 95.2417 463.105 109.388C464.371 123.535 441.38 139.957 441.38 139.957C441.38 139.957 449.211 143.744 445.927 151.322C442.646 158.9 431.277 168.247 431.277 168.247C431.277 168.247 432.26 176.755 417.97 179.257C403.679 181.759 399.299 172.113 399.299 172.113C399.299 172.113 395.64 178.538 385.995 178.811C376.349 179.075 372.419 172.559 372.419 172.559C372.419 172.559 363.219 184.703 341.249 183.097C319.279 181.49 313.742 168.092 313.742 168.092C313.742 168.092 311.776 171.845 304.633 170.949C297.49 170.057 294.092 164.161 294.092 164.161C294.092 164.161 286.949 167.737 274.442 166.486C261.94 165.235 258.19 153.446 258.19 153.446C258.19 153.446 251.58 160.234 237.29 156.304C223.003 152.373 221.93 139.511 221.93 139.511C221.93 139.511 218.713 141.654 214.427 139.87C210.141 138.083 208.89 133.26 208.89 133.26C208.89 133.26 199.064 138.797 186.561 133.082C174.058 127.368 177.452 112.004 177.452 112.004C177.452 112.004 156.211 110.341 160.936 95.0074Z" fill="#FFC517"/>
    <path d="M185.99 85.895C185.99 85.895 196.565 73.4226 216.925 78.9596C237.289 84.4966 238.363 109.502 238.363 109.502C238.363 109.502 255.151 102.536 261.758 115.757C268.372 128.974 262.476 128.078 276.407 126.294C290.343 124.507 289.269 137.368 292.663 135.762C296.057 134.152 290.52 120.58 280.342 119.51C270.156 118.433 271.052 120.221 271.052 120.221C271.052 120.221 271.407 106.108 263.368 99.6789C255.333 93.25 244.077 96.1073 244.077 96.1073C244.077 96.1073 243.533 74.0349 215.141 68.5999C186.75 63.1612 179.773 84.8519 181.383 87.5353C182.989 90.2112 185.99 85.895 185.99 85.895Z" fill="#FFAC17"/>
    <path d="M221.571 111.29C226.393 111.29 235.328 108.969 242.649 118.433C249.974 127.901 250.329 113.255 241.757 106.826C233.181 100.393 224.965 105.216 222.107 107.54C219.25 109.861 218.895 111.471 221.571 111.29Z" fill="white"/>
    <path d="M316.591 67.4547C316.591 67.4547 334.272 48.7612 356.503 56.3429C378.734 63.9208 374.69 90.1923 374.69 90.1923C374.69 90.1923 391.868 81.0987 400.962 91.2014C410.059 101.304 406.775 115.451 411.575 110.904C416.375 106.357 413.34 89.1794 402.228 82.6143C391.112 76.0455 384.037 79.3262 384.037 79.3262C384.037 79.3262 387.828 53.3079 364.081 47.7521C340.338 42.1962 320.632 51.5429 313.813 61.3961C306.991 71.2455 311.538 70.9923 316.591 67.4547Z" fill="#FFAC17"/>
    <path d="M359.281 93.9794C359.281 93.9794 376.459 89.1794 381.765 105.601C387.068 122.02 391.365 95.6235 377.218 86.7794C363.072 77.9391 351.578 94.3574 353.85 95.6235C356.125 96.8859 359.281 93.9794 359.281 93.9794Z" fill="white"/>
    <path d="M289.182 65.4363C289.182 65.4363 302.32 61.2675 310.654 69.2234C318.991 77.1831 316.338 89.5572 318.232 91.5793C320.129 93.6013 326.444 79.0766 316.591 67.4546C306.738 55.8363 293.347 59.4987 290.573 60.8896C287.799 62.2804 284.129 66.8234 289.182 65.4363ZM373.303 145.766C373.303 145.766 387.068 165.216 402.859 156.878C418.646 148.544 420.286 134.019 420.286 134.019C420.286 134.019 427.739 136.042 432.161 131.242C436.583 126.442 433.93 117.851 436.077 121.388C438.224 124.926 439.108 134.397 432.161 138.944C425.215 143.491 422.183 140.46 422.183 140.46C422.183 140.46 423.317 159.029 403.993 164.838C384.668 170.647 375.574 159.029 373.303 152.207C371.028 145.388 371.028 143.362 373.303 145.766Z" fill="#FFAC17"/>
    <path d="M229.44 52.2988C229.44 52.2988 245.102 37.3962 256.72 46.4897C268.342 55.5833 262.533 41.6897 249.649 38.1521C236.764 34.6183 224.64 46.9962 225.902 51.2897C227.168 55.5832 229.44 52.2988 229.44 52.2988ZM296.458 141.805C301.281 141.805 310.212 139.481 317.533 148.949C324.858 158.416 325.217 143.771 316.641 137.338C308.069 130.909 299.852 135.732 296.991 138.056C294.134 140.377 293.779 141.983 296.458 141.805Z" fill="white"/>
    <path d="M319.196 140.732C326.709 140.732 340.625 137.111 352.04 151.863C363.446 166.614 364.005 143.793 350.645 133.774C337.284 123.754 324.483 131.268 320.031 134.885C315.579 138.506 315.019 141.008 319.196 140.732ZM252.283 39.8981C252.283 39.8981 276.888 16.4878 295.143 30.7706C313.39 45.0572 304.266 23.2305 284.031 17.6783C263.792 12.1224 244.747 31.5643 246.727 38.3107C248.715 45.0572 252.283 39.8981 252.283 39.8981ZM370.714 30.3889C370.714 30.3889 387.892 25.5889 393.198 42.0109C398.505 58.4329 402.798 32.033 388.648 23.1889C374.505 14.3486 363.008 30.7706 365.283 32.033C367.558 33.2953 370.714 30.3889 370.714 30.3889Z" fill="white"/>
    <path d="M355.146 33.5069C355.146 33.5069 365.888 30.5022 369.206 40.7712C372.521 51.0364 375.208 34.5312 366.36 29.0018C357.516 23.4761 350.331 33.7413 351.752 34.5312C353.174 35.3211 355.146 33.5069 355.146 33.5069ZM302.619 298.648C308.088 332.811 290.483 357.344 256.32 362.809C222.153 368.278 195.28 349.603 189.811 315.436C184.342 281.269 204.691 254.677 238.854 249.208C273.021 243.739 297.15 264.481 302.615 298.644L302.619 298.648Z" fill="white"/>
    <path d="M211.026 308.641C211.026 308.641 228.06 313.392 248.654 308.773C269.253 304.158 284.605 292.899 286.971 296.701C289.341 300.503 286.571 336.794 249.259 342.766C211.948 348.738 201.966 307.016 211.026 308.641Z" fill="#171D8F"/>
    <path d="M245.431 328.755C237.154 328.967 230.471 335.354 217.897 333.68C224.632 340.306 234.844 345.907 249.184 343.613C255.465 342.604 260.825 339.882 265.288 337.456C262.484 335.301 258.342 332.894 253.285 330.517C250.405 329.164 247.85 328.695 245.431 328.755Z" fill="#FF4B3D"/>
    <path d="M216.888 308.864C216.888 310.863 220.112 322.073 239.463 319.768C258.814 317.462 267.718 316.083 272.632 309.019C277.545 301.955 272.02 298.576 268.947 300.882C265.874 303.183 231.17 313.316 216.888 308.864Z" fill="white"/>
    <path d="M13.5762 272.599C18.5878 285.136 81.6566 431.365 83.1306 436.857C87.1861 451.99 138.123 470.434 178.008 446.797C217.893 423.16 213.46 404.845 213.169 397.75C212.874 390.66 185.098 230.227 185.098 230.227L13.5762 272.599Z" fill="#FF4B3D"/>
    <path d="M78.4627 195.516C75.9871 196.121 73.2054 196.703 70.0646 197.145C67.4 197.519 64.6259 197.391 61.8706 196.933L74.8948 233.961C77.8769 232.298 81.6148 230.775 86.7058 229.925C89.6576 229.433 91.8535 228.991 93.5732 228.564C88.4891 217.57 83.4523 206.554 78.4627 195.516Z" fill="#171D8F"/>
    <path d="M30.3796 223.428C30.3796 223.428 59.6633 208.514 90.2963 200.108C120.933 191.706 143.436 183.301 147.231 188.996C151.029 194.688 157.806 205.804 152.382 210.143C146.963 214.482 40.4105 244.302 32.5491 246.472C24.6877 248.641 17.6389 230.477 30.3796 223.428Z" fill="#FFAC17"/>
    <path d="M184.717 229.762L13.5044 272.059C15.345 276.666 25.6669 300.81 37.2511 327.905C45.2637 323.105 51.961 315.459 55.6952 304.812C63.2618 283.227 118.938 269.406 150.773 255.508C176.198 244.408 178.93 231.066 184.717 229.762Z" fill="#CF1531"/>
    <path d="M11.0212 252.315C11.0212 252.315 53.2422 230.813 97.421 218.696C141.596 206.575 174.043 194.458 179.516 202.667C184.989 210.876 194.762 226.905 186.946 233.16C179.123 239.415 25.4854 282.419 14.1468 285.544C2.81206 288.674 -7.35107 262.482 11.0212 252.315Z" fill="#FFC517"/>
    <path d="M50.9745 154.671C55.3965 160.794 62.8459 158.333 60.9524 159.973C59.0589 161.614 52.868 161.931 50.6608 159.218C48.4498 156.5 49.1452 153.219 50.9745 154.671ZM72.1322 168.247C69.5432 169.827 63.6661 169.131 63.9836 170.9C64.3011 172.669 68.9725 173.867 71.9432 171.278C74.9102 168.689 72.1322 168.247 72.1322 168.247ZM56.2771 145.324C54.9543 147.471 55.5212 148.102 58.2992 149.111C61.0809 150.124 62.9744 149.807 60.1323 147.153C57.2901 144.504 56.2771 145.324 56.2771 145.324Z" fill="#171D8F"/>
    <path d="M112.838 335.105C112.838 335.105 94.2613 297.593 73.8972 320.818C53.5332 344.036 124.271 370.474 124.271 370.474C124.271 370.474 134.271 338.321 127.842 325.46C121.413 312.598 112.838 335.105 112.838 335.105ZM151.064 343.681C143.561 335.819 133.202 343.322 141.059 355.11C148.921 366.902 155.35 376.903 155.35 376.903C155.35 376.903 174.64 346.179 168.211 333.676C161.782 321.174 151.064 343.681 151.064 343.681Z" fill="white"/>
</svg>
