<svg viewBox="0 0 463 463" fill="none" xmlns="http://www.w3.org/2000/svg">
    <path d="M24.4912 190.115C24.4912 195.316 37.8594 297.057 57.1689 377.262C76.4747 457.463 85.3868 459.693 99.4995 461.923C113.608 464.149 230.944 446.325 323.032 424.045C415.12 401.768 447.053 395.082 447.053 358.697C447.053 322.304 409.178 129.219 399.521 117.337C389.869 105.454 24.4912 190.115 24.4912 190.115Z" fill="#FFC517"/>
    <path d="M393.72 116.199C345.622 115.708 24.4912 190.115 24.4912 190.115C24.4912 192.659 27.7076 218.386 33.2408 253.324C75.9342 237.253 168.321 203.956 230.811 192.209C300.419 179.117 347.043 151.674 412.75 162.237C407.103 138.071 402.212 120.651 399.521 117.337C398.917 116.596 396.925 116.229 393.72 116.199Z" fill="#FFAC17"/>
    <path d="M137.374 199.027C144.056 199.027 409.178 144.073 409.919 133.679C410.663 123.278 411.404 96.5454 399.525 90.604C387.639 84.6626 57.9097 163.382 57.9097 170.805C57.9097 178.232 129.947 200.512 137.374 199.027Z" fill="#7738C7"/>
    <path d="M87.3445 160.714C93.9397 159.641 377.952 51.4747 377.022 41.0924C376.088 30.7138 372.539 4.20429 359.859 0.243356C347.175 -3.71758 34.3216 126.819 35.5122 134.152C36.7027 141.484 80.2541 163.367 87.3445 160.714Z" fill="#7738C7"/>
    <path d="M1.02051 134.734C1.02051 134.734 22.6356 221.678 27.8324 230.219C33.033 238.761 103.582 214.621 130.688 207.569C157.795 200.512 158.536 192.715 154.824 189.004C151.113 185.289 85.3075 106.882 76.7696 106.142C68.2279 105.397 -3.06515 115.795 1.02051 134.734Z" fill="#FF4B3D"/>
    <path d="M8.10352 162.464C14.8802 188.633 24.4991 224.433 27.7381 229.755C32.9274 238.277 103.351 214.183 130.405 207.146C145.542 203.204 152.44 199.035 154.934 195.474C154.654 195.505 154.386 195.527 154.106 195.561C74.1506 204.443 35.9321 188.078 8.10352 162.464Z" fill="#CF1531"/>
    <path d="M389.774 90.8611C380.59 91.9685 365.54 94.6784 346.899 98.4239C351.147 107.461 336.789 136.673 324.313 159.112C338.287 155.816 352.223 152.361 366.118 148.748C379.157 128.146 392.219 102.782 390.065 91.9307C389.991 91.5684 389.893 91.2112 389.774 90.8611ZM304.017 107.476C290.388 110.462 275.924 113.72 261.165 117.106C262.563 118.225 263.689 119.283 264.404 120.239C269.831 127.522 257.192 154.584 244.981 177.057C258.617 174.09 272.511 171.01 286.367 167.873C298.623 147.992 310.128 124.881 308.095 114.649C307.664 112.484 306.224 110.065 304.017 107.476ZM214.737 127.976C200.511 131.37 186.534 134.764 172.966 138.116C173.282 138.443 173.578 138.787 173.854 139.148C179.281 146.431 166.643 173.493 154.431 195.962C168.064 193.274 181.68 190.505 195.28 187.655C207.734 167.578 219.605 143.941 217.541 133.558C217.201 131.846 216.222 129.968 214.737 127.976ZM306.171 17.5195C287.772 24.5026 269.442 31.6652 251.183 39.0061C276.57 44.853 316.247 54.9216 324.101 62.5298C325.118 63.5125 325.768 65.0508 326.131 67.0161C342.927 59.7821 356.805 53.4779 365.774 48.8253C360.116 38.5337 330.833 26.2994 306.171 17.5233V17.5195ZM222.19 50.7339C204.085 58.1316 186.019 65.6239 167.992 73.2107C192.544 78.7288 238.348 89.8746 246.833 98.0913C247.184 98.4315 247.487 98.8359 247.755 99.297C261.407 93.8393 274.93 88.3931 287.716 83.1395C279.817 72.1525 246.984 59.2416 222.19 50.7339ZM139.634 85.2372C122.318 92.6223 105.061 100.148 87.8662 107.812C113.268 113.67 152.662 123.69 160.482 131.264C160.962 131.733 161.359 132.326 161.684 133.025C174.383 128.142 187.989 122.866 202.045 117.371C195.896 106.701 164.696 94.0132 139.634 85.2372Z" fill="#171D8F"/>
    <path d="M39.2692 190.621C35.5917 191.411 27.7152 206.114 46.0912 209.001C64.471 211.889 59.4858 178.281 39.2692 190.621ZM103.067 171.716C99.3937 172.506 91.5172 187.212 109.893 190.096C128.273 192.984 123.284 159.376 103.067 171.716ZM27.4506 136.797C23.7731 137.583 15.8966 152.29 34.2764 155.177C52.6562 158.065 47.6673 124.457 27.4506 136.797Z" fill="white"/>
    <path d="M76.8378 265.441C142.212 252.224 147.931 246.15 151.502 257.224C155.074 268.298 167.577 299.381 157.217 306.169C146.861 312.957 87.1975 328.676 85.0545 318.312C82.9115 307.957 63.2618 271.159 76.8378 265.441Z" fill="#7738C7"/>
    <path d="M198.659 239.362C240.098 227.929 374.067 194.348 382.638 198.279C391.214 202.209 389.782 204.352 365.136 214.712C340.486 225.072 206.161 253.652 189.728 253.652C173.295 253.652 176.507 244.718 198.659 239.362ZM208.304 281.16C249.743 269.731 383.712 236.146 392.288 240.076C400.86 244.007 399.431 246.15 374.781 256.51C350.131 266.869 215.807 295.45 199.373 295.45C182.94 295.45 186.153 286.515 208.304 281.16Z" fill="white"/>
    <path d="M111.862 397.89C147.896 390.603 151.044 387.255 153.014 393.359C154.983 399.463 161.877 416.595 156.166 420.337C150.455 424.079 117.569 432.741 116.39 427.03C115.207 421.323 104.379 401.039 111.862 397.89ZM96.8575 347.876C132.891 340.589 136.04 337.24 138.009 343.344C139.978 349.448 146.872 366.581 141.161 370.322C135.45 374.064 102.565 382.727 101.385 377.016C100.202 371.309 89.3741 351.024 96.8575 347.876Z" fill="#7738C7"/>
    <path d="M162.935 332.44C188.273 325.452 270.175 304.925 275.417 307.325C280.659 309.725 279.786 311.037 264.717 317.371C249.645 323.706 167.523 341.179 157.477 341.179C147.431 341.179 149.393 335.717 162.935 332.44ZM168.653 354.592C193.987 347.6 225.165 337.788 230.407 340.192C235.649 342.592 234.772 343.904 219.703 350.238C204.634 356.572 173.242 363.326 163.192 363.326C153.146 363.326 155.111 357.869 168.653 354.592ZM179.372 381.026C204.706 374.038 286.612 353.511 291.851 355.911C297.093 358.311 296.22 359.623 281.151 365.957C266.078 372.292 183.957 389.764 173.911 389.764C163.865 389.764 165.83 384.303 179.372 381.026ZM185.087 403.178C210.421 396.186 241.598 386.374 246.84 388.778C252.082 391.178 251.206 392.489 236.137 398.824C221.068 405.158 189.675 411.912 179.625 411.912C169.579 411.912 171.545 406.455 185.087 403.178Z" fill="white"/>
    <path d="M367.936 273.113C343.033 273.183 319.173 283.125 301.588 300.76C284.003 318.394 274.129 342.282 274.129 367.186C274.129 383.358 278.298 399.257 286.234 413.349C279.722 421.433 270.228 428.765 256.909 429.631C225.894 431.645 254.388 440.221 274.813 442.239C286.575 443.4 297.478 439.798 304.633 436.532C321.983 452.434 344.663 461.255 368.197 461.254C393.147 461.254 417.074 451.343 434.716 433.701C452.358 416.059 462.269 392.131 462.269 367.182C462.268 342.233 452.357 318.306 434.715 300.665C417.073 283.024 393.146 273.113 368.197 273.113C368.111 273.113 368.022 273.113 367.936 273.113Z" fill="#FF4B3D"/>
    <path d="M348.54 398.136C343.479 395.422 342.534 370.648 342.534 364.907C342.534 358.897 343.43 333.238 348.54 330.071C353.415 327.047 375.348 338.616 380.318 341.485C385.522 344.493 407.296 358.1 407.485 364.105C407.663 369.843 386.679 383.048 381.709 385.917C376.505 388.922 353.835 400.978 348.54 398.136Z" fill="white"/>
    <path d="M274.159 369.62C274.556 384.963 278.702 399.976 286.234 413.349C279.722 421.433 270.228 428.765 256.909 429.631C225.894 431.645 254.388 440.221 274.813 442.239C286.575 443.399 297.478 439.798 304.633 436.532C321.983 452.434 344.663 461.254 368.197 461.254C388.669 461.253 408.582 454.575 424.914 442.231C441.246 429.888 453.106 412.554 458.694 392.86C430.17 422.389 394.631 445.561 359.281 432.908C328.592 421.917 298.96 396.549 274.159 369.616V369.62Z" fill="#CF1531"/>
</svg>
