<svg width="70" height="48" viewBox="0 0 70 48" fill="none" xmlns="http://www.w3.org/2000/svg">
<rect width="70" height="48" rx="8" fill="#0052FF"/>
<path d="M35 6C44.9422 6 53 14.0578 53 24C53 33.9422 44.9422 42 35 42C25.0578 42 17 33.9422 17 24C17 14.0578 25.0578 6 35 6Z" fill="#0052FF"/>
<path d="M35.0271 30.5C31.4312 30.5 28.5154 27.5931 28.5154 24C28.5154 20.4069 31.4312 17.5 35.0271 17.5C38.2504 17.5 40.9275 19.8472 41.4412 22.9167H48C47.4465 16.2433 41.85 11 35.0235 11C27.8316 11 22 16.8211 22 24C22 31.1789 27.8316 37 35.0235 37C41.85 37 47.4465 31.7567 48 25.0833H41.4376C40.9203 28.1528 38.2504 30.5 35.0271 30.5Z" fill="white"/>
</svg>
