<svg width="70" height="48" viewBox="0 0 70 48" fill="none" xmlns="http://www.w3.org/2000/svg">
<rect width="70" height="48" rx="8" fill="#6461FC"/>
<path fill-rule="evenodd" clip-rule="evenodd" d="M37.6108 15.8688L34.055 16.6319V13.749L37.6108 13V15.8688ZM23.1606 14.6393L19.704 15.3742L19.6898 26.694C19.6898 28.7855 21.2623 30.3259 23.359 30.3259C24.5207 30.3259 25.3707 30.1139 25.8382 29.8595V26.9907C25.3848 27.1744 23.1465 27.8245 23.1465 25.733V20.7161H25.8382V17.706H23.1465L23.1606 14.6393ZM60.9999 23.9382C60.9999 20.3204 59.2433 17.4657 55.8858 17.4657C52.5141 17.4657 50.4741 20.3204 50.4741 23.9099C50.4741 28.1637 52.8824 30.3118 56.3391 30.3118C58.0249 30.3118 59.2999 29.9302 60.2633 29.3932V26.5668C59.2999 27.0473 58.1949 27.344 56.7924 27.344C55.4183 27.344 54.1999 26.8635 54.0441 25.196H60.9716C60.9716 25.1181 60.9767 24.9412 60.9826 24.7374V24.7373V24.7373V24.7373C60.9905 24.4603 60.9999 24.1336 60.9999 23.9382ZM54.0015 22.5957C54.0015 20.9988 54.979 20.3345 55.8715 20.3345C56.7357 20.3345 57.6565 20.9988 57.6565 22.5957H54.0015ZM14.7883 20.5324C14.0375 20.5324 13.5841 20.7444 13.5841 21.2955C13.5841 21.8973 14.3643 22.162 15.3322 22.4904C16.9102 23.0258 18.987 23.7305 18.9958 26.3407C18.9958 28.8703 16.97 30.3259 14.0233 30.3259C12.805 30.3259 11.4733 30.0857 10.1558 29.5204V26.157C11.3458 26.8071 12.8475 27.2875 14.0233 27.2875C14.8166 27.2875 15.3833 27.0756 15.3833 26.4255C15.3833 25.7589 14.5375 25.4542 13.5165 25.0864C11.9615 24.5262 9.99994 23.8196 9.99994 21.4651C9.99994 18.9638 11.9124 17.4658 14.7883 17.4658C15.9641 17.4658 17.1258 17.6495 18.3016 18.1158V21.4369C17.225 20.8575 15.865 20.5324 14.7883 20.5324ZM30.2442 18.7517L30.0175 17.706H26.9575V30.0715H30.4992V21.6912C31.335 20.6031 32.7517 20.8009 33.1909 20.9564V17.706C32.7376 17.5364 31.08 17.2255 30.2442 18.7517ZM34.0547 17.706H37.6106V30.0715H34.0547V17.706ZM42.2289 18.568C42.7248 18.1158 43.6173 17.4657 45.0056 17.4657C47.4848 17.4657 49.8223 19.6986 49.8364 23.7969C49.8364 28.2768 47.5273 30.3118 44.9914 30.3118C43.7448 30.3118 42.9939 29.7889 42.4839 29.4215L42.4698 33.4209L38.9281 34.1699V17.6918H42.0448L42.2289 18.568ZM42.4839 26.5385C42.8239 26.9059 43.3197 27.2027 44.1555 27.2027C45.4589 27.2027 46.3372 25.7895 46.3372 23.8958C46.3372 22.0445 45.4447 20.603 44.1555 20.603C43.348 20.603 42.838 20.8857 42.4697 21.2955L42.4839 26.5385Z" fill="white"/>
</svg>
